<mxfile host="app.diagrams.net" modified="2024-04-15T07:13:30.460Z" agent="Mozilla/5.0 (Windows NT 10.0; Win64; x64) AppleWebKit/537.36 (KHTML, like Gecko) Chrome/123.0.0.0 Safari/537.36" version="24.2.3" etag="7Q62MLUwAIW99243S6JZ" type="github">
  <diagram name="第 1 页" id="L_siZCYqg8s1FiK0Kq_0">
    <mxGraphModel>
      <root>
        <mxCell id="0" />
        <mxCell id="1" parent="0" />
      </root>
    </mxGraphModel>
  </diagram>
</mxfile>
